<svg xmlns="http://www.w3.org/2000/svg" width="32" height="32" fill="none" viewBox="0 0 32 32"><title>GenOVA</title><defs><linearGradient id="bg" x1="0" x2="32" y1="0" y2="32" gradientUnits="userSpaceOnUse"><stop stop-color="#0e47a6"/><stop offset="1" stop-color="#0a3d91"/></linearGradient></defs><rect width="32" height="32" fill="url(#bg)" rx="8"/><path fill="#fff" d="M16 11.7c-1.8-1.2-3.9-1.7-6-1.7-.9 0-1.7.8-1.7 1.7v8.2c0 .9.8 1.6 1.7 1.6 2.1 0 4.2.5 6 1.7z" opacity=".96"/><path fill="#fff" d="M16 11.7c1.8-1.2 3.9-1.7 6-1.7.9 0 1.7.8 1.7 1.7v8.2c0 .9-.8 1.6-1.7 1.6-2.1 0-4.2.5-6 1.7z" opacity=".8"/><path fill="#f47a20" d="M23 3.7c.16-.53.9-.53 1.06 0l.52 1.72c.05.16.18.29.34.34l1.72.52c.53.16.53.9 0 1.06l-1.72.52a.5.5 0 0 0-.34.34l-.52 1.72c-.16.53-.9.53-1.06 0l-.52-1.72a.5.5 0 0 0-.34-.34l-1.72-.52a.552.552 0 0 1 0-1.06l1.72-.52a.5.5 0 0 0 .34-.34z"/></svg>
